{
  "accessors": [
    {
      "bufferView": 2,
      "componentType": 5126,
      "count": 11508,
      "max": [
        59.483985900878906,
        70.42955017089844,
        1.6289558410644531
      ],
      "min": [
        -59.205780029296875,
        -60.91675567626953,
        -2.441661834716797
      ],
      "type": "VEC3"
    },
    {
      "bufferView": 2,
      "byteOffset": 138096,
      "componentType": 5126,
      "count": 11508,
      "max": [
        0.9987994432449341,
        1.0,
        1.0
      ],
      "min": [
        -0.9987993240356445,
        -1.0,
        -1.0
      ],
      "type": "VEC3"
    },
    {
      "bufferView": 1,
      "componentType": 5126,
      "count": 11508,
      "max": [
        1.0,
        1.0
      ],
      "min": [
        0.0,
        0.0
      ],
      "type": "VEC2"
    },
    {
      "bufferView": 0,
      "componentType": 5125,
      "count": 32160,
      "type": "SCALAR"
    },
    {
      "bufferView": 2,
      "byteOffset": 276192,
      "componentType": 5126,
      "count": 4,
      "max": [
        1.0,
        0.0,
        1.0
      ],
      "min": [
        -1.0,
        0.0,
        -1.0
      ],
      "type": "VEC3"
    },
    {
      "bufferView": 2,
      "byteOffset": 276240,
      "componentType": 5126,
      "count": 4,
      "max": [
        0.0,
        1.0,
        -0.0
      ],
      "min": [
        0.0,
        1.0,
        -0.0
      ],
      "type": "VEC3"
    },
    {
      "bufferView": 1,
      "byteOffset": 92064,
      "componentType": 5126,
      "count": 4,
      "max": [
        1.0,
        1.0
      ],
      "min": [
        0.0,
        0.0
      ],
      "type": "VEC2"
    },
    {
      "bufferView": 0,
      "byteOffset": 128640,
      "componentType": 5125,
      "count": 6,
      "type": "SCALAR"
    },
    {
      "bufferView": 2,
      "byteOffset": 276288,
      "componentType": 5126,
      "count": 8768,
      "max": [
        59.48398208618164,
        70.42955017089844,
        -0.08071213960647583
      ],
      "min": [
        -59.20577621459961,
        -60.916751861572266,
        -0.681983470916748
      ],
      "type": "VEC3"
    },
    {
      "bufferView": 2,
      "byteOffset": 381504,
      "componentType": 5126,
      "count": 8768,
      "max": [
        0.9987984299659729,
        0.9987995624542236,
        0.9999799132347107
      ],
      "min": [
        -0.9987981915473938,
        -0.9987994432449341,
        -0.9999799728393555
      ],
      "type": "VEC3"
    },
    {
      "bufferView": 1,
      "byteOffset": 92096,
      "componentType": 5126,
      "count": 8768,
      "max": [
        1.0,
        1.0
      ],
      "min": [
        0.0,
        0.0
      ],
      "type": "VEC2"
    },
    {
      "bufferView": 0,
      "byteOffset": 128664,
      "componentType": 5125,
      "count": 24384,
      "type": "SCALAR"
    },
    {
      "bufferView": 2,
      "byteOffset": 486720,
      "componentType": 5126,
      "count": 2739,
      "max": [
        48.79520034790039,
        60.12181091308594,
        -0.1689472198486328
      ],
      "min": [
        -48.65705490112305,
        29.594600677490234,
        -0.6860997676849365
      ],
      "type": "VEC3"
    },
    {
      "bufferView": 2,
      "byteOffset": 519588,
      "componentType": 5126,
      "count": 2739,
      "max": [
        0.9970830082893372,
        0.9970778822898865,
        0.9998322129249573
      ],
      "min": [
        -0.9970830082893372,
        -0.9974420070648193,
        -0.9998319745063782
      ],
      "type": "VEC3"
    },
    {
      "bufferView": 1,
      "byteOffset": 162240,
      "componentType": 5126,
      "count": 2739,
      "max": [
        1.0,
        0.9858400225639343
      ],
      "min": [
        0.1774899959564209,
        0.0
      ],
      "type": "VEC2"
    },
    {
      "bufferView": 0,
      "byteOffset": 226200,
      "componentType": 5125,
      "count": 7761,
      "type": "SCALAR"
    }
  ],
  "asset": {
    "extras": {
      "author": "Aldomi364 (https://sketchfab.com/sonicgamuno320)",
      "license": "CC-BY-4.0 (http://creativecommons.org/licenses/by/4.0/)",
      "source": "https://sketchfab.com/3d-models/pac-man-map-moderno-a40169367d5547cb83a82b372852d322",
      "title": "Pac Man Map (MODERNO)"
    },
    "generator": "Sketchfab-15.37.0",
    "version": "2.0"
  },
  "bufferViews": [
    {
      "buffer": 0,
      "byteLength": 257244,
      "name": "floatBufferViews",
      "target": 34963
    },
    {
      "buffer": 0,
      "byteLength": 184152,
      "byteOffset": 257244,
      "byteStride": 8,
      "name": "floatBufferViews",
      "target": 34962
    },
    {
      "buffer": 0,
      "byteLength": 552456,
      "byteOffset": 441396,
      "byteStride": 12,
      "name": "floatBufferViews",
      "target": 34962
    }
  ],
  "buffers": [
    {
      "byteLength": 993852,
      "uri": "scene.bin"
    }
  ],
  "extensionsUsed": [
    "KHR_materials_unlit"
  ],
  "materials": [
    {
      "doubleSided": true,
      "emissiveFactor": [
        0.0,
        0.0246738,
        1.0
      ],
      "extensions": {
        "KHR_materials_unlit": {}
      },
      "name": "Tex_0003_3.dds",
      "pbrMetallicRoughness": {
        "baseColorFactor": [
          0.0,
          0.0640186,
          0.92582,
          1.0
        ],
        "metallicFactor": 0.0
      }
    },
    {
      "doubleSided": true,
      "extensions": {
        "KHR_materials_unlit": {}
      },
      "name": "Material.004",
      "pbrMetallicRoughness": {
        "baseColorFactor": [
          0.0699701,
          0.0699701,
          0.0699701,
          1.0
        ],
        "metallicFactor": 0.0
      }
    },
    {
      "doubleSided": true,
      "extensions": {
        "KHR_materials_unlit": {}
      },
      "name": "Material.001",
      "pbrMetallicRoughness": {
        "baseColorFactor": [
          0.0,
          0.0,
          0.0,
          1.0
        ],
        "metallicFactor": 0.0
      }
    },
    {
      "doubleSided": true,
      "extensions": {
        "KHR_materials_unlit": {}
      },
      "name": "Material.003",
      "pbrMetallicRoughness": {
        "baseColorFactor": [
          0.0,
          0.0,
          0.0,
          1.0
        ],
        "metallicFactor": 0.0
      }
    }
  ],
  "meshes": [
    {
      "name": "Object_0",
      "primitives": [
        {
          "attributes": {
            "NORMAL": 1,
            "POSITION": 0,
            "TEXCOORD_0": 2
          },
          "indices": 3,
          "material": 0,
          "mode": 4
        }
      ]
    },
    {
      "name": "Object_1",
      "primitives": [
        {
          "attributes": {
            "NORMAL": 5,
            "POSITION": 4,
            "TEXCOORD_0": 6
          },
          "indices": 7,
          "material": 1,
          "mode": 4
        }
      ]
    },
    {
      "name": "Object_2",
      "primitives": [
        {
          "attributes": {
            "NORMAL": 9,
            "POSITION": 8,
            "TEXCOORD_0": 10
          },
          "indices": 11,
          "material": 2,
          "mode": 4
        }
      ]
    },
    {
      "name": "Object_3",
      "primitives": [
        {
          "attributes": {
            "NORMAL": 13,
            "POSITION": 12,
            "TEXCOORD_0": 14
          },
          "indices": 15,
          "material": 3,
          "mode": 4
        }
      ]
    }
  ],
  "nodes": [
    {
      "children": [
        1
      ],
      "matrix": [
        0.08600251376628876,
        0.0,
        0.0,
        0.0,
        0.0,
        1.9096394191795153e-17,
        -0.08600251376628876,
        0.0,
        0.0,
        0.08600251376628876,
        1.9096394191795153e-17,
        0.0,
        0.0,
        0.0,
        0.0,
        1.0
      ],
      "name": "Sketchfab_model"
    },
    {
      "children": [
        2
      ],
      "name": "root"
    },
    {
      "children": [
        3,
        5,
        7
      ],
      "matrix": [
        1.0,
        0.0,
        0.0,
        0.0,
        0.0,
        2.220446049250313e-16,
        1.0,
        0.0,
        0.0,
        -1.0,
        2.220446049250313e-16,
        0.0,
        0.0,
        0.0,
        0.0,
        1.0
      ],
      "name": "GLTF_SceneRootNode"
    },
    {
      "children": [
        4
      ],
      "matrix": [
        1.0,
        0.0,
        0.0,
        0.0,
        0.0,
        8.429369480200677e-08,
        0.9999999999999966,
        0.0,
        0.0,
        -0.9999999999999966,
        8.429369480200677e-08,
        0.0,
        0.0,
        8.140166282653809,
        0.0,
        1.0
      ],
      "name": "Pack Man Map Blue Lights_1"
    },
    {
      "mesh": 0,
      "name": "Object_4"
    },
    {
      "children": [
        6
      ],
      "matrix": [
        93.04817962646484,
        0.0,
        0.0,
        0.0,
        0.0,
        1.6321961879730225,
        0.0,
        0.0,
        0.0,
        0.0,
        103.71585845947266,
        0.0,
        0.0,
        0.7246441841125488,
        12.458076477050781,
        1.0
      ],
      "name": "Plano_2"
    },
    {
      "mesh": 1,
      "name": "Object_6"
    },
    {
      "children": [
        8,
        9
      ],
      "matrix": [
        1.0,
        0.0,
        0.0,
        0.0,
        0.0,
        8.429369480200677e-08,
        0.9999999999999966,
        0.0,
        0.0,
        -17.73489761352533,
        1.4949400467793475e-06,
        0.0,
        0.0,
        -2.0640745162963867,
        0.0,
        1.0
      ],
      "name": "Blue Lights_3"
    },
    {
      "mesh": 2,
      "name": "Object_8"
    },
    {
      "mesh": 3,
      "name": "Object_9"
    }
  ],
  "scene": 0,
  "scenes": [
    {
      "name": "Sketchfab_Scene",
      "nodes": [
        0
      ]
    }
  ]
}
